<mxfile host="app.diagrams.net" agent="Mozilla/5.0 (X11; Linux x86_64) AppleWebKit/537.36 (KHTML, like Gecko) Chrome/130.0.0.0 Safari/537.36" version="24.8.4">
  <diagram name="Page-1" id="VvxHaP9nIrQ0yejy2AMv">
    <mxGraphModel dx="880" dy="1543" grid="1" gridSize="10" guides="1" tooltips="1" connect="1" arrows="1" fold="1" page="1" pageScale="1" pageWidth="850" pageHeight="1100" math="0" shadow="0">
      <root>
        <mxCell id="0" />
        <mxCell id="1" parent="0" />
        <mxCell id="yG34ddMk1kn0oQS-R8Ma-1" value="Aws Account - Santander Coders 2024" style="points=[[0,0],[0.25,0],[0.5,0],[0.75,0],[1,0],[1,0.25],[1,0.5],[1,0.75],[1,1],[0.75,1],[0.5,1],[0.25,1],[0,1],[0,0.75],[0,0.5],[0,0.25]];outlineConnect=0;html=1;whiteSpace=wrap;fontSize=12;fontStyle=0;container=1;pointerEvents=0;collapsible=0;recursiveResize=0;shape=mxgraph.aws4.group;grIcon=mxgraph.aws4.group_account;strokeColor=#6c8ebf;fillColor=#dae8fc;verticalAlign=top;align=left;spacingLeft=30;dashed=0;gradientColor=#7ea6e0;" parent="1" vertex="1">
          <mxGeometry y="-30" width="770" height="610" as="geometry" />
        </mxCell>
        <mxCell id="yG34ddMk1kn0oQS-R8Ma-26" value="IAM" style="outlineConnect=0;dashed=0;verticalLabelPosition=bottom;verticalAlign=top;align=center;html=1;shape=mxgraph.aws3.iam;fillColor=#759C3E;gradientColor=none;" parent="yG34ddMk1kn0oQS-R8Ma-1" vertex="1">
          <mxGeometry x="690" y="160" width="45.75" height="71" as="geometry" />
        </mxCell>
        <mxCell id="yG34ddMk1kn0oQS-R8Ma-30" value="Cognito&lt;div&gt;&lt;br&gt;&lt;/div&gt;" style="outlineConnect=0;dashed=0;verticalLabelPosition=bottom;verticalAlign=top;align=center;html=1;shape=mxgraph.aws3.cognito;fillColor=#AD688B;gradientColor=none;" parent="yG34ddMk1kn0oQS-R8Ma-1" vertex="1">
          <mxGeometry x="695.38" y="263.5" width="61.75" height="83" as="geometry" />
        </mxCell>
        <mxCell id="yG34ddMk1kn0oQS-R8Ma-31" value="Cloud Watch&lt;div&gt;&lt;br&gt;&lt;/div&gt;" style="outlineConnect=0;dashed=0;verticalLabelPosition=bottom;verticalAlign=top;align=center;html=1;shape=mxgraph.aws3.cloudwatch;fillColor=#759C3E;gradientColor=none;" parent="yG34ddMk1kn0oQS-R8Ma-1" vertex="1">
          <mxGeometry x="690" y="410" width="59.5" height="63" as="geometry" />
        </mxCell>
        <mxCell id="yG34ddMk1kn0oQS-R8Ma-15" value="Cloud Front&lt;div&gt;&lt;br&gt;&lt;/div&gt;" style="outlineConnect=0;dashed=0;verticalLabelPosition=bottom;verticalAlign=top;align=center;html=1;shape=mxgraph.aws3.cloudfront;fillColor=#F58536;gradientColor=none;" parent="yG34ddMk1kn0oQS-R8Ma-1" vertex="1">
          <mxGeometry x="330" y="30" width="50" height="43" as="geometry" />
        </mxCell>
        <mxCell id="yG34ddMk1kn0oQS-R8Ma-14" value="AWS-S3&lt;div&gt;&lt;br&gt;&lt;/div&gt;" style="outlineConnect=0;dashed=0;verticalLabelPosition=bottom;verticalAlign=top;align=center;html=1;shape=mxgraph.aws3.s3;fillColor=#E05243;gradientColor=none;" parent="yG34ddMk1kn0oQS-R8Ma-1" vertex="1">
          <mxGeometry x="680" y="25" width="40" height="53" as="geometry" />
        </mxCell>
        <mxCell id="yG34ddMk1kn0oQS-R8Ma-39" value="Budget&lt;div&gt;&lt;br&gt;&lt;/div&gt;" style="sketch=0;points=[[0,0,0],[0.25,0,0],[0.5,0,0],[0.75,0,0],[1,0,0],[0,1,0],[0.25,1,0],[0.5,1,0],[0.75,1,0],[1,1,0],[0,0.25,0],[0,0.5,0],[0,0.75,0],[1,0.25,0],[1,0.5,0],[1,0.75,0]];outlineConnect=0;fontColor=#232F3E;fillColor=#7AA116;strokeColor=#ffffff;dashed=0;verticalLabelPosition=bottom;verticalAlign=top;align=center;html=1;fontSize=12;fontStyle=0;aspect=fixed;shape=mxgraph.aws4.resourceIcon;resIcon=mxgraph.aws4.budgets_2;" parent="yG34ddMk1kn0oQS-R8Ma-1" vertex="1">
          <mxGeometry x="694.5" y="510" width="57.25" height="57.25" as="geometry" />
        </mxCell>
        <mxCell id="yG34ddMk1kn0oQS-R8Ma-53" style="edgeStyle=orthogonalEdgeStyle;rounded=0;orthogonalLoop=1;jettySize=auto;html=1;" parent="yG34ddMk1kn0oQS-R8Ma-1" edge="1">
          <mxGeometry relative="1" as="geometry">
            <mxPoint x="380" y="51" as="sourcePoint" />
            <mxPoint x="680" y="58" as="targetPoint" />
            <Array as="points">
              <mxPoint x="660" y="51" />
              <mxPoint x="660" y="58" />
            </Array>
          </mxGeometry>
        </mxCell>
        <mxCell id="yG34ddMk1kn0oQS-R8Ma-22" value="Internet Gateway" style="outlineConnect=0;dashed=0;verticalLabelPosition=bottom;verticalAlign=top;align=center;html=1;shape=mxgraph.aws3.internet_gateway;fillColor=#F58534;gradientColor=none;" parent="yG34ddMk1kn0oQS-R8Ma-1" vertex="1">
          <mxGeometry x="405" y="83" width="39.5" height="40" as="geometry" />
        </mxCell>
        <mxCell id="yG34ddMk1kn0oQS-R8Ma-3" value="vpc - 10.0.0/16" style="points=[[0,0],[0.25,0],[0.5,0],[0.75,0],[1,0],[1,0.25],[1,0.5],[1,0.75],[1,1],[0.75,1],[0.5,1],[0.25,1],[0,1],[0,0.75],[0,0.5],[0,0.25]];outlineConnect=0;gradientColor=none;html=1;whiteSpace=wrap;fontSize=12;fontStyle=0;container=1;pointerEvents=0;collapsible=0;recursiveResize=0;shape=mxgraph.aws4.group;grIcon=mxgraph.aws4.group_vpc2;strokeColor=#8C4FFF;fillColor=none;verticalAlign=top;align=left;spacingLeft=30;fontColor=#AAB7B8;dashed=0;" parent="1" vertex="1">
          <mxGeometry x="20" y="80" width="630" height="490" as="geometry" />
        </mxCell>
        <mxCell id="msWQAP0UNu-W4kGWAmj1-17" value="Private subnet" style="points=[[0,0],[0.25,0],[0.5,0],[0.75,0],[1,0],[1,0.25],[1,0.5],[1,0.75],[1,1],[0.75,1],[0.5,1],[0.25,1],[0,1],[0,0.75],[0,0.5],[0,0.25]];outlineConnect=0;gradientColor=none;html=1;whiteSpace=wrap;fontSize=12;fontStyle=0;container=1;pointerEvents=0;collapsible=0;recursiveResize=0;shape=mxgraph.aws4.group;grIcon=mxgraph.aws4.group_security_group;grStroke=0;strokeColor=#00A4A6;fillColor=#E6F6F7;verticalAlign=top;align=left;spacingLeft=30;fontColor=#147EBA;dashed=0;" vertex="1" parent="yG34ddMk1kn0oQS-R8Ma-3">
          <mxGeometry x="424" y="340" width="130" height="130" as="geometry" />
        </mxCell>
        <mxCell id="msWQAP0UNu-W4kGWAmj1-16" value="Private subnet" style="points=[[0,0],[0.25,0],[0.5,0],[0.75,0],[1,0],[1,0.25],[1,0.5],[1,0.75],[1,1],[0.75,1],[0.5,1],[0.25,1],[0,1],[0,0.75],[0,0.5],[0,0.25]];outlineConnect=0;gradientColor=none;html=1;whiteSpace=wrap;fontSize=12;fontStyle=0;container=1;pointerEvents=0;collapsible=0;recursiveResize=0;shape=mxgraph.aws4.group;grIcon=mxgraph.aws4.group_security_group;grStroke=0;strokeColor=#00A4A6;fillColor=#E6F6F7;verticalAlign=top;align=left;spacingLeft=30;fontColor=#147EBA;dashed=0;" vertex="1" parent="yG34ddMk1kn0oQS-R8Ma-3">
          <mxGeometry x="210" y="340" width="130" height="130" as="geometry" />
        </mxCell>
        <mxCell id="msWQAP0UNu-W4kGWAmj1-14" value="Private subnet" style="points=[[0,0],[0.25,0],[0.5,0],[0.75,0],[1,0],[1,0.25],[1,0.5],[1,0.75],[1,1],[0.75,1],[0.5,1],[0.25,1],[0,1],[0,0.75],[0,0.5],[0,0.25]];outlineConnect=0;gradientColor=none;html=1;whiteSpace=wrap;fontSize=12;fontStyle=0;container=1;pointerEvents=0;collapsible=0;recursiveResize=0;shape=mxgraph.aws4.group;grIcon=mxgraph.aws4.group_security_group;grStroke=0;strokeColor=#00A4A6;fillColor=#E6F6F7;verticalAlign=top;align=left;spacingLeft=30;fontColor=#147EBA;dashed=0;" vertex="1" parent="yG34ddMk1kn0oQS-R8Ma-3">
          <mxGeometry x="20" y="340" width="130" height="130" as="geometry" />
        </mxCell>
        <mxCell id="msWQAP0UNu-W4kGWAmj1-10" value="Private subnet" style="points=[[0,0],[0.25,0],[0.5,0],[0.75,0],[1,0],[1,0.25],[1,0.5],[1,0.75],[1,1],[0.75,1],[0.5,1],[0.25,1],[0,1],[0,0.75],[0,0.5],[0,0.25]];outlineConnect=0;gradientColor=none;html=1;whiteSpace=wrap;fontSize=12;fontStyle=0;container=1;pointerEvents=0;collapsible=0;recursiveResize=0;shape=mxgraph.aws4.group;grIcon=mxgraph.aws4.group_security_group;grStroke=0;strokeColor=#00A4A6;fillColor=#E6F6F7;verticalAlign=top;align=left;spacingLeft=30;fontColor=#147EBA;dashed=0;" vertex="1" parent="yG34ddMk1kn0oQS-R8Ma-3">
          <mxGeometry x="214.5" y="197.13" width="130" height="130" as="geometry" />
        </mxCell>
        <mxCell id="msWQAP0UNu-W4kGWAmj1-9" value="Private subnet" style="points=[[0,0],[0.25,0],[0.5,0],[0.75,0],[1,0],[1,0.25],[1,0.5],[1,0.75],[1,1],[0.75,1],[0.5,1],[0.25,1],[0,1],[0,0.75],[0,0.5],[0,0.25]];outlineConnect=0;gradientColor=none;html=1;whiteSpace=wrap;fontSize=12;fontStyle=0;container=1;pointerEvents=0;collapsible=0;recursiveResize=0;shape=mxgraph.aws4.group;grIcon=mxgraph.aws4.group_security_group;grStroke=0;strokeColor=#00A4A6;fillColor=#E6F6F7;verticalAlign=top;align=left;spacingLeft=30;fontColor=#147EBA;dashed=0;" vertex="1" parent="yG34ddMk1kn0oQS-R8Ma-3">
          <mxGeometry x="20" y="197.13" width="130" height="130" as="geometry" />
        </mxCell>
        <mxCell id="msWQAP0UNu-W4kGWAmj1-11" value="Private subnet" style="points=[[0,0],[0.25,0],[0.5,0],[0.75,0],[1,0],[1,0.25],[1,0.5],[1,0.75],[1,1],[0.75,1],[0.5,1],[0.25,1],[0,1],[0,0.75],[0,0.5],[0,0.25]];outlineConnect=0;gradientColor=none;html=1;whiteSpace=wrap;fontSize=12;fontStyle=0;container=1;pointerEvents=0;collapsible=0;recursiveResize=0;shape=mxgraph.aws4.group;grIcon=mxgraph.aws4.group_security_group;grStroke=0;strokeColor=#00A4A6;fillColor=#E6F6F7;verticalAlign=top;align=left;spacingLeft=30;fontColor=#147EBA;dashed=0;" vertex="1" parent="yG34ddMk1kn0oQS-R8Ma-3">
          <mxGeometry x="424" y="197.13" width="130" height="130" as="geometry" />
        </mxCell>
        <mxCell id="yG34ddMk1kn0oQS-R8Ma-41" value="" style="rounded=1;arcSize=10;dashed=1;strokeColor=#ff0000;fillColor=none;gradientColor=none;dashPattern=8 4;strokeWidth=2;" parent="msWQAP0UNu-W4kGWAmj1-11" vertex="1">
          <mxGeometry x="-398.75" y="24" width="519.5" height="90" as="geometry" />
        </mxCell>
        <mxCell id="yG34ddMk1kn0oQS-R8Ma-38" value="&#xa;" style="rounded=1;arcSize=10;dashed=1;fillColor=none;gradientColor=none;dashPattern=8 3 1 3;strokeWidth=2;" parent="msWQAP0UNu-W4kGWAmj1-11" vertex="1">
          <mxGeometry x="-384" y="34" width="494" height="70" as="geometry" />
        </mxCell>
        <mxCell id="msWQAP0UNu-W4kGWAmj1-34" value="EC2" style="outlineConnect=0;dashed=0;verticalLabelPosition=bottom;verticalAlign=top;align=center;html=1;shape=mxgraph.aws3.ec2;fillColor=#F58534;gradientColor=none;" vertex="1" parent="msWQAP0UNu-W4kGWAmj1-11">
          <mxGeometry x="-174" y="34" width="42.62" height="48.25" as="geometry" />
        </mxCell>
        <mxCell id="msWQAP0UNu-W4kGWAmj1-35" value="EC2" style="outlineConnect=0;dashed=0;verticalLabelPosition=bottom;verticalAlign=top;align=center;html=1;shape=mxgraph.aws3.ec2;fillColor=#F58534;gradientColor=none;" vertex="1" parent="msWQAP0UNu-W4kGWAmj1-11">
          <mxGeometry x="43.69" y="34" width="42.62" height="48.25" as="geometry" />
        </mxCell>
        <mxCell id="yG34ddMk1kn0oQS-R8Ma-13" value="Route Table" style="outlineConnect=0;dashed=0;verticalLabelPosition=bottom;verticalAlign=top;align=center;html=1;shape=mxgraph.aws3.route_table;fillColor=#F58536;gradientColor=none;" parent="yG34ddMk1kn0oQS-R8Ma-3" vertex="1">
          <mxGeometry x="570" y="180" width="50" height="70" as="geometry" />
        </mxCell>
        <mxCell id="yG34ddMk1kn0oQS-R8Ma-27" value="" style="sketch=0;outlineConnect=0;fontColor=#232F3E;gradientColor=none;fillColor=#C925D1;strokeColor=none;dashed=0;verticalLabelPosition=bottom;verticalAlign=top;align=center;html=1;fontSize=12;fontStyle=0;aspect=fixed;pointerEvents=1;shape=mxgraph.aws4.rds_instance;" parent="yG34ddMk1kn0oQS-R8Ma-3" vertex="1">
          <mxGeometry x="50" y="385" width="58" height="58" as="geometry" />
        </mxCell>
        <mxCell id="yG34ddMk1kn0oQS-R8Ma-28" value="" style="sketch=0;outlineConnect=0;fontColor=#232F3E;gradientColor=none;fillColor=#C925D1;strokeColor=none;dashed=0;verticalLabelPosition=bottom;verticalAlign=top;align=center;html=1;fontSize=12;fontStyle=0;aspect=fixed;pointerEvents=1;shape=mxgraph.aws4.rds_instance;" parent="yG34ddMk1kn0oQS-R8Ma-3" vertex="1">
          <mxGeometry x="250.5" y="390" width="58" height="58" as="geometry" />
        </mxCell>
        <mxCell id="yG34ddMk1kn0oQS-R8Ma-29" value="" style="sketch=0;outlineConnect=0;fontColor=#232F3E;gradientColor=none;fillColor=#C925D1;strokeColor=none;dashed=0;verticalLabelPosition=bottom;verticalAlign=top;align=center;html=1;fontSize=12;fontStyle=0;aspect=fixed;pointerEvents=1;shape=mxgraph.aws4.rds_instance;" parent="yG34ddMk1kn0oQS-R8Ma-3" vertex="1">
          <mxGeometry x="455" y="380" width="68" height="68" as="geometry" />
        </mxCell>
        <mxCell id="yG34ddMk1kn0oQS-R8Ma-32" value="EC2" style="outlineConnect=0;dashed=0;verticalLabelPosition=bottom;verticalAlign=top;align=center;html=1;shape=mxgraph.aws3.ec2;fillColor=#F58534;gradientColor=none;" parent="yG34ddMk1kn0oQS-R8Ma-3" vertex="1">
          <mxGeometry x="57.690000000000005" y="233" width="42.62" height="48.25" as="geometry" />
        </mxCell>
        <mxCell id="msWQAP0UNu-W4kGWAmj1-4" value="Public subnet" style="points=[[0,0],[0.25,0],[0.5,0],[0.75,0],[1,0],[1,0.25],[1,0.5],[1,0.75],[1,1],[0.75,1],[0.5,1],[0.25,1],[0,1],[0,0.75],[0,0.5],[0,0.25]];outlineConnect=0;gradientColor=none;html=1;whiteSpace=wrap;fontSize=12;fontStyle=0;container=1;pointerEvents=0;collapsible=0;recursiveResize=0;shape=mxgraph.aws4.group;grIcon=mxgraph.aws4.group_security_group;grStroke=0;strokeColor=#7AA116;fillColor=#F2F6E8;verticalAlign=top;align=left;spacingLeft=30;fontColor=#248814;dashed=0;" vertex="1" parent="yG34ddMk1kn0oQS-R8Ma-3">
          <mxGeometry x="14" y="37.75" width="136" height="130" as="geometry" />
        </mxCell>
        <mxCell id="yG34ddMk1kn0oQS-R8Ma-7" value="Nat Gateway" style="sketch=0;outlineConnect=0;fontColor=#232F3E;gradientColor=none;fillColor=#8C4FFF;strokeColor=none;dashed=0;verticalLabelPosition=bottom;verticalAlign=top;align=center;html=1;fontSize=12;fontStyle=0;aspect=fixed;pointerEvents=1;shape=mxgraph.aws4.nat_gateway;" parent="yG34ddMk1kn0oQS-R8Ma-3" vertex="1">
          <mxGeometry x="30" y="90" width="37.75" height="37.75" as="geometry" />
        </mxCell>
        <mxCell id="msWQAP0UNu-W4kGWAmj1-7" value="Public subnet" style="points=[[0,0],[0.25,0],[0.5,0],[0.75,0],[1,0],[1,0.25],[1,0.5],[1,0.75],[1,1],[0.75,1],[0.5,1],[0.25,1],[0,1],[0,0.75],[0,0.5],[0,0.25]];outlineConnect=0;gradientColor=none;html=1;whiteSpace=wrap;fontSize=12;fontStyle=0;container=1;pointerEvents=0;collapsible=0;recursiveResize=0;shape=mxgraph.aws4.group;grIcon=mxgraph.aws4.group_security_group;grStroke=0;strokeColor=#7AA116;fillColor=#F2F6E8;verticalAlign=top;align=left;spacingLeft=30;fontColor=#248814;dashed=0;" vertex="1" parent="yG34ddMk1kn0oQS-R8Ma-3">
          <mxGeometry x="210" y="41.75" width="140" height="130" as="geometry" />
        </mxCell>
        <mxCell id="msWQAP0UNu-W4kGWAmj1-20" value="Load Balance" style="outlineConnect=0;dashed=0;verticalLabelPosition=bottom;verticalAlign=top;align=center;html=1;shape=mxgraph.aws3.application_load_balancer;fillColor=#F58534;gradientColor=none;" vertex="1" parent="msWQAP0UNu-W4kGWAmj1-7">
          <mxGeometry x="70" y="21.930000000000007" width="46" height="43.63" as="geometry" />
        </mxCell>
        <mxCell id="msWQAP0UNu-W4kGWAmj1-23" value="Nat Gateway" style="sketch=0;outlineConnect=0;fontColor=#232F3E;gradientColor=none;fillColor=#8C4FFF;strokeColor=none;dashed=0;verticalLabelPosition=bottom;verticalAlign=top;align=center;html=1;fontSize=12;fontStyle=0;aspect=fixed;pointerEvents=1;shape=mxgraph.aws4.nat_gateway;" vertex="1" parent="msWQAP0UNu-W4kGWAmj1-7">
          <mxGeometry x="20" y="57.25" width="37.75" height="37.75" as="geometry" />
        </mxCell>
        <mxCell id="msWQAP0UNu-W4kGWAmj1-25" value="" style="rounded=1;arcSize=10;dashed=1;strokeColor=#ff0000;fillColor=none;gradientColor=none;dashPattern=8 4;strokeWidth=2;" vertex="1" parent="yG34ddMk1kn0oQS-R8Ma-3">
          <mxGeometry x="27.880000000000003" y="374" width="519.5" height="90" as="geometry" />
        </mxCell>
        <mxCell id="msWQAP0UNu-W4kGWAmj1-32" style="edgeStyle=orthogonalEdgeStyle;rounded=0;orthogonalLoop=1;jettySize=auto;html=1;exitX=0.5;exitY=1;exitDx=0;exitDy=0;exitPerimeter=0;" edge="1" parent="yG34ddMk1kn0oQS-R8Ma-3" source="msWQAP0UNu-W4kGWAmj1-20">
          <mxGeometry relative="1" as="geometry">
            <mxPoint x="302" y="124.31000000000017" as="sourcePoint" />
            <mxPoint x="172" y="230" as="targetPoint" />
            <Array as="points">
              <mxPoint x="302" y="107" />
              <mxPoint x="302" y="187" />
              <mxPoint x="172" y="187" />
            </Array>
          </mxGeometry>
        </mxCell>
        <mxCell id="yG34ddMk1kn0oQS-R8Ma-44" style="edgeStyle=orthogonalEdgeStyle;rounded=0;orthogonalLoop=1;jettySize=auto;html=1;exitX=0;exitY=1;exitDx=0;exitDy=0;exitPerimeter=0;" parent="1" source="yG34ddMk1kn0oQS-R8Ma-18" target="yG34ddMk1kn0oQS-R8Ma-15" edge="1">
          <mxGeometry relative="1" as="geometry" />
        </mxCell>
        <mxCell id="yG34ddMk1kn0oQS-R8Ma-18" value="Actor" style="shape=umlActor;verticalLabelPosition=bottom;verticalAlign=top;html=1;outlineConnect=0;" parent="1" vertex="1">
          <mxGeometry x="530" y="-140" width="40" height="50" as="geometry" />
        </mxCell>
        <mxCell id="yG34ddMk1kn0oQS-R8Ma-52" style="edgeStyle=orthogonalEdgeStyle;rounded=0;orthogonalLoop=1;jettySize=auto;html=1;entryX=0.981;entryY=0.665;entryDx=0;entryDy=0;entryPerimeter=0;" parent="1" source="yG34ddMk1kn0oQS-R8Ma-30" target="yG34ddMk1kn0oQS-R8Ma-41" edge="1">
          <mxGeometry relative="1" as="geometry">
            <Array as="points">
              <mxPoint x="726" y="370" />
              <mxPoint x="630" y="370" />
              <mxPoint x="630" y="360" />
            </Array>
          </mxGeometry>
        </mxCell>
        <mxCell id="msWQAP0UNu-W4kGWAmj1-8" value="Public subnet" style="points=[[0,0],[0.25,0],[0.5,0],[0.75,0],[1,0],[1,0.25],[1,0.5],[1,0.75],[1,1],[0.75,1],[0.5,1],[0.25,1],[0,1],[0,0.75],[0,0.5],[0,0.25]];outlineConnect=0;gradientColor=none;html=1;whiteSpace=wrap;fontSize=12;fontStyle=0;container=1;pointerEvents=0;collapsible=0;recursiveResize=0;shape=mxgraph.aws4.group;grIcon=mxgraph.aws4.group_security_group;grStroke=0;strokeColor=#7AA116;fillColor=#F2F6E8;verticalAlign=top;align=left;spacingLeft=30;fontColor=#248814;dashed=0;" vertex="1" parent="1">
          <mxGeometry x="450" y="127.75" width="140" height="130" as="geometry" />
        </mxCell>
        <mxCell id="msWQAP0UNu-W4kGWAmj1-19" value="Load Balance" style="outlineConnect=0;dashed=0;verticalLabelPosition=bottom;verticalAlign=top;align=center;html=1;shape=mxgraph.aws3.application_load_balancer;fillColor=#F58534;gradientColor=none;" vertex="1" parent="msWQAP0UNu-W4kGWAmj1-8">
          <mxGeometry x="74" y="22.25" width="46" height="43.63" as="geometry" />
        </mxCell>
        <mxCell id="msWQAP0UNu-W4kGWAmj1-24" value="Nat Gateway" style="sketch=0;outlineConnect=0;fontColor=#232F3E;gradientColor=none;fillColor=#8C4FFF;strokeColor=none;dashed=0;verticalLabelPosition=bottom;verticalAlign=top;align=center;html=1;fontSize=12;fontStyle=0;aspect=fixed;pointerEvents=1;shape=mxgraph.aws4.nat_gateway;" vertex="1" parent="msWQAP0UNu-W4kGWAmj1-8">
          <mxGeometry x="20" y="55.879999999999995" width="37.75" height="37.75" as="geometry" />
        </mxCell>
        <mxCell id="msWQAP0UNu-W4kGWAmj1-21" value="Load Balance" style="outlineConnect=0;dashed=0;verticalLabelPosition=bottom;verticalAlign=top;align=center;html=1;shape=mxgraph.aws3.application_load_balancer;fillColor=#F58534;gradientColor=none;" vertex="1" parent="1">
          <mxGeometry x="105" y="140" width="46" height="43.63" as="geometry" />
        </mxCell>
        <mxCell id="msWQAP0UNu-W4kGWAmj1-28" style="edgeStyle=orthogonalEdgeStyle;rounded=0;orthogonalLoop=1;jettySize=auto;html=1;" edge="1" parent="1" source="yG34ddMk1kn0oQS-R8Ma-15" target="msWQAP0UNu-W4kGWAmj1-21">
          <mxGeometry relative="1" as="geometry" />
        </mxCell>
        <mxCell id="msWQAP0UNu-W4kGWAmj1-29" style="edgeStyle=orthogonalEdgeStyle;rounded=0;orthogonalLoop=1;jettySize=auto;html=1;" edge="1" parent="1">
          <mxGeometry relative="1" as="geometry">
            <mxPoint x="330" y="21" as="sourcePoint" />
            <mxPoint x="320" y="142.68000000000006" as="targetPoint" />
            <Array as="points">
              <mxPoint x="320" y="21" />
            </Array>
          </mxGeometry>
        </mxCell>
        <mxCell id="msWQAP0UNu-W4kGWAmj1-30" style="edgeStyle=orthogonalEdgeStyle;rounded=0;orthogonalLoop=1;jettySize=auto;html=1;" edge="1" parent="1" source="yG34ddMk1kn0oQS-R8Ma-15" target="msWQAP0UNu-W4kGWAmj1-19">
          <mxGeometry relative="1" as="geometry" />
        </mxCell>
        <mxCell id="msWQAP0UNu-W4kGWAmj1-31" style="edgeStyle=orthogonalEdgeStyle;rounded=0;orthogonalLoop=1;jettySize=auto;html=1;entryX=0.264;entryY=-0.016;entryDx=0;entryDy=0;entryPerimeter=0;" edge="1" parent="1">
          <mxGeometry relative="1" as="geometry">
            <mxPoint x="128" y="180.6300000000001" as="sourcePoint" />
            <mxPoint x="192" y="307.0100000000002" as="targetPoint" />
            <Array as="points">
              <mxPoint x="128" y="267" />
              <mxPoint x="192" y="267" />
            </Array>
          </mxGeometry>
        </mxCell>
        <mxCell id="msWQAP0UNu-W4kGWAmj1-33" style="edgeStyle=orthogonalEdgeStyle;rounded=0;orthogonalLoop=1;jettySize=auto;html=1;" edge="1" parent="1" source="msWQAP0UNu-W4kGWAmj1-19">
          <mxGeometry relative="1" as="geometry">
            <mxPoint x="543" y="218.6300000000001" as="sourcePoint" />
            <mxPoint x="192" y="310" as="targetPoint" />
            <Array as="points">
              <mxPoint x="543" y="267" />
              <mxPoint x="192" y="267" />
            </Array>
          </mxGeometry>
        </mxCell>
      </root>
    </mxGraphModel>
  </diagram>
</mxfile>
